<svg width="340px" height="362px" viewBox="0 0 340 362" version="1.1" xmlns="http://www.w3.org/2000/svg" xmlns:xlink="http://www.w3.org/1999/xlink">
    <g transform="translate(1.000000, 1.000000)" fill="#000000" stroke="#979797">
        <path d="M338,17 L338,287.063582 L32,360 L32,78.9070939 L338,17 Z M327.262497,29.0358286 L42.7375031,86.5982976 L42.7375031,347.964171 L327.262497,280.146414 L327.262497,29.0358286 Z"></path>
        <polygon points="0 63.6634431 274 0 274 11.5504178 253.431507 16.5078122 253.431507 28.5609116 231.851858 33.5477934 231.851858 20.8366471 13.6717011 70.8895247 13.6717011 360 0 360"></polygon>
        <path d="M105,96.6885031 C192.137243,77.1038323 243.427104,77.1038323 258.869581,96.6885031 C282.033298,126.065509 278.654047,190.908884 258.869581,233.946842 C245.679938,262.638814 194.390077,289.3232 105,314 L105,314 Z M136.733333,125.383252 L136.733333,279 C193.942983,261.556055 226.768493,242.692955 235.209865,222.410699 C247.871923,191.987314 250.034644,146.149756 235.209865,125.383252 C225.32668,111.538916 192.501169,111.538916 136.733333,125.383252 Z"></path>
    </g>
</svg>