<svg width="183px" height="226px" viewBox="0 0 183 226" version="1.1" xmlns="http://www.w3.org/2000/svg" xmlns:xlink="http://www.w3.org/1999/xlink">
    <g id="Group" fill="#000000">
        <g id="D" fill-rule="nonzero">
            <path d="M0,0 L0,226 L76.119211,226 C98.6149228,226 183,136.623239 183,112.921691 C183,89.2201432 98.5102916,0 76.119211,0 L0,0 Z M28.2504288,25.3721414 L74.2358491,25.3721414 C91.3953688,25.3721414 154.121784,94.3363363 154.121784,113.234927 C154.121784,131.924694 91.3953688,200.627859 74.2358491,200.627859 L28.2504288,200.627859 L28.2504288,25.3721414 Z" id="Shape"></path>
        </g>
        <path d="M110,57 L110,170 L99,170 L99.0005942,161.03968 C92.946911,166.603306 84.8701257,170 76,170 C57.2223185,170 42,154.777681 42,136 C42,117.222319 57.2223185,102 76,102 C84.8701257,102 92.946911,105.396694 99.0005942,110.96032 L99,57 L110,57 Z M76.317757,113.439252 C64.0332925,113.439252 54.0747664,123.397778 54.0747664,135.682243 C54.0747664,147.966708 64.0332925,157.925234 76.317757,157.925234 C88.6022215,157.925234 98.5607477,147.966708 98.5607477,135.682243 C98.5607477,123.397778 88.6022215,113.439252 76.317757,113.439252 Z"></path>
    </g>
</svg>